<svg width="343" height="402" viewBox="0 0 343 402" fill="none" xmlns="http://www.w3.org/2000/svg">
<path d="M8.08975 88.9186V20.4635C8.08975 18.2212 9.83374 16.36 12.1932 16.36C14.0545 16.36 15.5493 17.7229 16.0476 19.1005L40.6979 84.3168H46.9264L71.5767 19.0859C72.075 17.7229 73.5698 16.3453 75.4311 16.3453C77.7906 16.3453 79.5346 18.2066 79.5346 20.4488V88.9186H87.6243V0.048584H70.8146L48.0402 60.2967C47.5419 61.7915 45.9299 63.1545 43.8048 63.1545C41.6798 63.1545 40.0677 61.7915 39.5694 60.2967L16.8097 0.048584H0V88.9186H8.08975Z" fill="#011C27"/>
<path d="M165.069 88.87H203.159C204.938 88.87 206.328 87.4798 206.328 85.7009V79.3477C206.328 77.5688 204.938 76.1786 203.159 76.1786H193.636C191.857 76.1786 190.467 74.7883 190.467 73.0094V15.8606C190.467 14.0817 191.857 12.6914 193.636 12.6914H199.99C201.768 12.6914 203.159 11.3012 203.159 9.52232V3.16912C203.159 1.39023 201.768 0 199.99 0H168.253C166.475 0 165.084 1.39023 165.084 3.16912V9.52232C165.084 11.3012 166.475 12.6914 168.253 12.6914H174.607C176.385 12.6914 177.776 14.0817 177.776 15.8606V72.9945C177.776 74.7734 176.385 76.1636 174.607 76.1636H165.084C163.305 76.1636 161.915 77.5538 161.915 79.3327V85.6859C161.915 87.4648 163.305 88.8551 165.084 88.8551" fill="#011C27"/>
<path d="M153.622 62.1579C153.622 51.8259 145.151 43.3698 134.834 43.3698H125.249C115.049 43.3698 106.461 51.8406 106.461 62.1579C106.461 72.4753 115.049 80.9461 125.249 80.9461H134.834C145.166 80.9461 153.622 72.4753 153.622 62.1579ZM161.595 62.1579C161.595 76.8426 149.519 88.9186 134.834 88.9186H99.7345V0.048584H107.956V35.3973H134.849C149.533 35.3973 161.609 47.4733 161.609 62.1579" fill="#011C27"/>
<path d="M32.8363 296.973L48.8953 237.362C49.3892 235.746 50.8859 234.384 52.8764 234.384C54.8669 234.384 56.3636 235.746 56.8575 237.362L72.9164 296.973H84.7399L105.768 208.103H97.8056L82.3752 273.686C82.0011 275.182 80.5044 276.679 78.3942 276.679C76.4036 276.679 74.907 275.317 74.4131 273.686L57.3663 210.961H48.4014L31.3547 273.686C30.8608 275.302 29.3641 276.679 27.3736 276.679C25.2633 276.679 23.7667 275.182 23.3925 273.686L7.96215 208.103H0L21.0279 296.973H32.8513H32.8363Z" fill="#011C27"/>
<path d="M118.564 296.973H150.338C152.119 296.973 153.51 295.583 153.51 293.804V287.45C153.51 285.672 152.119 284.281 150.338 284.281H131.27C127.708 284.281 124.91 281.486 124.91 277.928V265.237C124.91 261.679 127.708 258.884 131.27 258.884H143.977C145.758 258.884 147.15 257.493 147.15 255.714V249.361C147.15 247.582 145.758 246.192 143.977 246.192H131.27C127.708 246.192 124.91 243.397 124.91 239.839V227.147C124.91 223.59 127.708 220.794 131.27 220.794H147.165C148.811 220.794 150.338 219.404 150.338 217.625V211.272C150.338 209.493 148.946 208.103 147.165 208.103H118.564C115.002 208.103 112.203 210.898 112.203 214.456V236.67C112.203 238.449 113.595 239.839 115.376 239.839C117.157 239.839 118.549 241.229 118.549 243.008V249.361C118.549 251.14 117.157 252.53 115.376 252.53C113.595 252.53 112.203 253.666 112.203 255.699V290.62C112.203 294.177 115.002 296.973 118.564 296.973Z" fill="#011C27"/>
<path d="M6.36078 400.791H38.1345C39.9155 400.791 41.3073 399.4 41.3073 397.622V391.268C41.3073 389.489 39.9155 388.099 38.1345 388.099H19.0673C15.5052 388.099 12.7065 385.304 12.7065 381.746V369.055C12.7065 365.497 15.5052 362.701 19.0673 362.701H31.7737C33.5547 362.701 34.9466 361.311 34.9466 359.532V353.179C34.9466 351.4 33.5547 350.01 31.7737 350.01H19.0673C15.5052 350.01 12.7065 347.215 12.7065 343.657V330.965C12.7065 327.408 15.5052 324.612 19.0673 324.612H34.9616C36.6079 324.612 38.1345 323.222 38.1345 321.443V315.09C38.1345 313.311 36.7426 311.921 34.9616 311.921H6.36078C2.79877 311.921 0 314.716 0 318.274V340.488C0 342.267 1.39192 343.657 3.17292 343.657C4.95393 343.657 6.3458 345.047 6.3458 346.826V353.179C6.3458 354.958 4.95393 356.348 3.17292 356.348C1.39192 356.348 0 357.484 0 359.517V394.437C0 397.995 2.79877 400.791 6.36078 400.791Z" fill="#011C27"/>
<path d="M118.31 311.921H108.851L90.6819 338.187C89.3199 340.058 86.9552 341.674 83.8422 341.674C80.7292 341.674 78.3645 340.058 77.0026 338.187L58.8334 311.921H49.3746L79.2475 354.979L47.5038 400.776H56.9626L77.0026 371.771C78.3645 370.035 80.7292 368.284 83.8422 368.284C86.9552 368.284 89.3199 370.02 90.6819 371.771L110.722 400.776H120.181L88.4519 354.979L118.325 311.921H118.31Z" fill="#011C27"/>
<path d="M128.726 400.791H166.861C168.642 400.791 170.034 399.4 170.034 397.622V391.268C170.034 389.489 168.642 388.099 166.861 388.099H157.327C155.546 388.099 154.154 386.709 154.154 384.93V327.781C154.154 326.002 155.546 324.612 157.327 324.612H163.688C165.469 324.612 166.861 323.222 166.861 321.443V315.09C166.861 313.311 165.469 311.921 163.688 311.921H131.914C130.133 311.921 128.741 313.311 128.741 315.09V321.443C128.741 323.222 130.133 324.612 131.914 324.612H138.275C140.056 324.612 141.448 326.002 141.448 327.781V384.915C141.448 386.694 140.056 388.084 138.275 388.084H128.741C126.96 388.084 125.568 389.474 125.568 391.253V397.607C125.568 399.385 126.96 400.776 128.741 400.776" fill="#011C27"/>
<path d="M209.71 401.928C234.06 401.928 242.142 386.767 242.142 375.842C242.142 364.168 235.931 351.985 213.436 351.985H209.83C194.294 351.985 187.589 346.762 187.589 336.33C187.589 325.899 195.537 319.313 208.587 319.313C223 319.313 230.708 326.392 230.708 338.695H238.79C238.79 322.052 227.729 311.231 208.602 311.231C189.475 311.231 179.523 323.414 179.523 336.33C179.523 349.246 186.482 360.067 209.844 360.067H213.451C227.744 360.067 234.075 365.155 234.075 375.842C234.075 386.528 224.631 393.861 209.725 393.861C192.828 393.861 184.372 385.779 184.372 370.259H176.29C176.29 388.024 185.988 401.943 209.71 401.943" fill="#011C27"/>
<path d="M282.431 400.791V333.577C282.431 326.109 288.523 320.003 295.991 320.003H314.28V311.921H242.336V320.017H260.625C268.093 320.017 274.185 326.124 274.185 333.592V400.791H282.401H282.431Z" fill="#011C27"/>
<path d="M338.2 367.803H332.291L327.614 336.292V311.921H342.877V336.292L338.2 367.803ZM327.491 393.036V380.235H343V393.036C343 397.344 339.554 400.791 335.245 400.791C330.937 400.791 327.491 397.344 327.491 393.036Z" fill="#011C27"/>
<path d="M259.623 166.242C259.623 155.91 251.152 147.454 240.835 147.454H231.25C221.05 147.454 212.462 155.924 212.462 166.242C212.462 176.559 221.05 185.03 231.25 185.03H240.835C251.167 185.03 259.623 176.559 259.623 166.242ZM267.595 166.242C267.595 180.926 255.519 193.002 240.835 193.002H205.735V104.132H213.957V139.481H240.849C255.534 139.481 267.61 151.557 267.61 166.242" fill="#011C27"/>
<path d="M6.36073 192.954H38.1345C39.9155 192.954 41.3073 191.564 41.3073 189.785V183.431C41.3073 181.653 39.9155 180.262 38.1345 180.262H19.0672C15.5052 180.262 12.7065 177.467 12.7065 173.909V161.218C12.7065 157.66 15.5052 154.864 19.0672 154.864H31.7737C33.5547 154.864 34.9466 153.474 34.9466 151.695V145.342C34.9466 143.563 33.5398 142.173 31.7737 142.173H19.0672C15.5052 142.173 12.7065 139.378 12.7065 135.82V123.128C12.7065 119.571 15.5052 116.775 19.0672 116.775H34.9616C36.6079 116.775 38.1345 115.385 38.1345 113.606V107.253C38.1345 105.474 36.7426 104.084 34.9616 104.084H6.36073C2.79872 104.084 0 106.879 0 110.437V132.651C0 134.43 1.39189 135.82 3.1729 135.82C4.9539 135.82 6.34577 137.21 6.34577 138.989V145.342C6.34577 147.121 4.9539 148.511 3.1729 148.511C1.39189 148.511 0 149.647 0 151.68V186.601C0 190.158 2.79872 192.954 6.36073 192.954Z" fill="#011C27"/>
<path d="M86.3298 193.774C105.715 193.774 120.507 180.856 123.609 160.972H115.167C112.563 175.764 101.37 185.581 86.3445 185.581C67.8221 185.581 55.4007 170.921 55.4007 148.434C55.4007 125.947 67.8221 111.272 86.3445 111.272C100.39 111.272 110.822 119.48 114.552 133.511H123.009C118.781 114.257 104.618 103.064 86.3591 103.064C64.1205 103.064 47.2222 120.343 47.2222 148.419C47.2222 176.496 64.1205 193.774 86.3591 193.774" fill="#011C27"/>
<path d="M164.587 193.003V125.789C164.587 118.32 170.678 112.214 178.146 112.214H196.435V104.132H124.492V112.229H142.781C150.249 112.229 156.34 118.335 156.34 125.804V193.003H164.557H164.587Z" fill="#011C27"/>
<path d="M288.94 160.015H283.032L278.354 128.504V104.132H293.617V128.504L288.94 160.015ZM278.231 185.248V172.447H293.74V185.248C293.74 189.556 290.294 193.002 285.986 193.002C281.678 193.002 278.231 189.556 278.231 185.248Z" fill="#011C27"/>
</svg>
