<svg width="1517" height="255" viewBox="0 0 1517 255" fill="none" xmlns="http://www.w3.org/2000/svg">
<path d="M92.2684 251.658L137.393 84.1538C138.781 79.6119 142.987 75.7849 148.58 75.7849C154.173 75.7849 158.379 79.6119 159.767 84.1538L204.891 251.658H238.115L297.202 1.93652H274.829L231.47 186.221C230.419 190.426 226.213 194.632 220.283 194.632C214.69 194.632 210.485 190.805 209.097 186.221L161.196 9.969H136.005L88.105 186.221C86.7172 190.763 82.5117 194.632 76.9184 194.632C70.9887 194.632 66.7832 190.426 65.7318 186.221L22.3732 1.93652H0L59.0872 251.658H92.3105H92.2684Z" fill="#011C27"/>
<path d="M333.159 251.657H422.441C427.446 251.657 431.357 247.75 431.357 242.751V224.899C431.357 219.901 427.446 215.994 422.441 215.994H368.863C358.854 215.994 350.99 208.139 350.99 198.142V162.48C350.99 152.483 358.854 144.628 368.863 144.628H404.568C409.572 144.628 413.484 140.721 413.484 135.723V117.87C413.484 112.872 409.572 108.965 404.568 108.965H368.863C358.854 108.965 350.99 101.11 350.99 91.1132V55.451C350.99 45.4538 358.854 37.5988 368.863 37.5988H413.526C418.152 37.5988 422.441 33.6923 422.441 28.6937V10.8416C422.441 5.84299 418.53 1.93652 413.526 1.93652H333.159C323.15 1.93652 315.285 9.79147 315.285 19.7887V82.2082C315.285 87.2068 319.196 91.1132 324.201 91.1132C329.206 91.1132 333.117 95.0197 333.117 100.018V117.87C333.117 122.869 329.206 126.776 324.201 126.776C319.196 126.776 315.285 129.968 315.285 135.681V233.804C315.285 243.802 323.15 251.657 333.159 251.657Z" fill="#011C27"/>
<path d="M570.642 251.657H659.925C664.929 251.657 668.841 247.75 668.841 242.751V224.899C668.841 219.901 664.929 215.994 659.925 215.994H606.347C596.338 215.994 588.474 208.139 588.474 198.142V162.48C588.474 152.483 596.338 144.628 606.347 144.628H642.052C647.056 144.628 650.967 140.721 650.967 135.723V117.87C650.967 112.872 647.056 108.965 642.052 108.965H606.347C596.338 108.965 588.474 101.11 588.474 91.1132V55.451C588.474 45.4538 596.338 37.5988 606.347 37.5988H651.009C655.635 37.5988 659.925 33.6923 659.925 28.6937V10.8416C659.925 5.84299 656.014 1.93652 651.009 1.93652H570.642C560.633 1.93652 552.769 9.79147 552.769 19.7887V82.2082C552.769 87.2068 556.68 91.1132 561.685 91.1132C566.689 91.1132 570.6 95.0197 570.6 100.018V117.87C570.6 122.869 566.689 126.776 561.685 126.776C556.68 126.776 552.769 129.968 552.769 135.681V233.804C552.769 243.802 560.633 251.657 570.642 251.657Z" fill="#011C27"/>
<path d="M885.213 1.93652H858.634L807.579 75.7428C803.752 80.9997 797.108 85.5416 788.36 85.5416C779.613 85.5416 772.968 80.9997 769.141 75.7428L718.087 1.93652H691.508L775.449 122.928L686.251 251.616H712.83L769.141 170.114C772.968 165.236 779.613 160.315 788.36 160.315C797.108 160.315 803.752 165.194 807.579 170.114L863.891 251.616H890.47L801.313 122.928L885.255 1.93652H885.213Z" fill="#011C27"/>
<path d="M914.482 251.657H1021.64C1026.64 251.657 1030.55 247.75 1030.55 242.751V224.899C1030.55 219.901 1026.64 215.994 1021.64 215.994H994.849C989.845 215.994 985.934 212.088 985.934 207.089V46.5039C985.934 41.5053 989.845 37.5988 994.849 37.5988H1012.72C1017.73 37.5988 1021.64 33.6923 1021.64 28.6937V10.8416C1021.64 5.84299 1017.73 1.93652 1012.72 1.93652H923.44C918.436 1.93652 914.524 5.84299 914.524 10.8416V28.6937C914.524 33.6923 918.436 37.5988 923.44 37.5988H941.313C946.318 37.5988 950.229 41.5053 950.229 46.5039V207.047C950.229 212.046 946.318 215.952 941.313 215.952H914.524C909.52 215.952 905.609 219.859 905.609 224.857V242.709C905.609 247.708 909.52 251.615 914.524 251.615" fill="#011C27"/>
<path d="M1142.04 254.852C1210.47 254.852 1233.17 212.251 1233.17 181.551C1233.17 148.748 1215.72 114.515 1152.51 114.515H1142.38C1098.73 114.515 1079.88 99.8383 1079.88 70.526C1079.88 41.2138 1102.22 22.7096 1138.89 22.7096C1179.39 22.7096 1201.04 42.6016 1201.04 77.1707H1223.75C1223.75 30.4057 1192.68 0 1138.93 0C1085.18 0 1057.22 34.2327 1057.22 70.526C1057.22 106.819 1076.77 137.225 1142.42 137.225H1152.56C1192.72 137.225 1210.51 151.524 1210.51 181.551C1210.51 211.578 1183.97 232.185 1142.08 232.185C1094.6 232.185 1070.84 209.475 1070.84 165.864H1048.13C1048.13 215.784 1075.38 254.895 1142.04 254.895" fill="#011C27"/>
<path d="M1346.39 251.658V62.7899C1346.39 41.8045 1363.5 24.6461 1384.49 24.6461H1435.88V1.93652H1233.72V24.6882H1285.11C1306.1 24.6882 1323.21 41.8466 1323.21 62.832V251.658H1346.3H1346.39Z" fill="#011C27"/>
<path d="M1503.09 158.963H1486.49L1473.35 70.4193V1.93652H1516.23V70.4193L1503.09 158.963ZM1473 229.867V193.896H1516.58V229.867C1516.58 241.972 1506.9 251.657 1494.79 251.657C1482.68 251.657 1473 241.972 1473 229.867Z" fill="#011C27"/>
</svg>
