<svg width="1515" height="255" viewBox="0 0 1515 255" fill="none" xmlns="http://www.w3.org/2000/svg">
<path d="M22.7318 252.72V60.3648C22.7318 54.0641 27.6323 48.8342 34.2624 48.8342C39.4923 48.8342 43.6928 52.664 45.0929 56.535L114.359 239.789H131.861L201.127 56.4938C202.527 52.664 206.727 48.793 211.957 48.793C218.587 48.793 223.488 54.0229 223.488 60.3236V252.72H246.22V3H198.985L134.99 172.294C133.59 176.494 129.06 180.324 123.089 180.324C117.118 180.324 112.588 176.494 111.188 172.294L47.2343 3H0V252.72H22.7318Z" fill="#011C27"/>
<path d="M463.835 252.584H570.864C575.863 252.584 579.769 248.678 579.769 243.679V225.827C579.769 220.828 575.863 216.922 570.864 216.922H544.107C539.109 216.922 535.202 213.016 535.202 208.017V47.4316C535.202 42.433 539.109 38.5265 544.107 38.5265H561.959C566.958 38.5265 570.864 34.6201 570.864 29.6215V11.7693C570.864 6.77073 566.958 2.86426 561.959 2.86426H472.783C467.784 2.86426 463.877 6.77073 463.877 11.7693V29.6215C463.877 34.6201 467.784 38.5265 472.783 38.5265H490.635C495.633 38.5265 499.54 42.433 499.54 47.4316V207.975C499.54 212.974 495.633 216.88 490.635 216.88H463.877C458.879 216.88 454.972 220.786 454.972 225.785V243.637C454.972 248.636 458.879 252.542 463.877 252.542" fill="#011C27"/>
<path d="M431.67 177.524C431.67 148.492 407.867 124.73 378.876 124.73H351.944C323.282 124.73 299.15 148.533 299.15 177.524C299.15 206.515 323.282 230.318 351.944 230.318H378.876C407.908 230.318 431.67 206.515 431.67 177.524ZM454.072 177.524C454.072 218.787 420.139 252.72 378.876 252.72H280.248V3H303.35V102.328H378.917C420.18 102.328 454.113 136.261 454.113 177.524" fill="#011C27"/>
<path d="M1418.71 177.524C1418.71 148.492 1394.91 124.73 1365.92 124.73H1338.98C1310.32 124.73 1286.19 148.533 1286.19 177.524C1286.19 206.515 1310.32 230.318 1338.98 230.318H1365.92C1394.95 230.318 1418.71 206.515 1418.71 177.524ZM1441.11 177.524C1441.11 218.787 1407.18 252.72 1365.92 252.72H1267.29V3H1290.39V102.328H1365.96C1407.22 102.328 1441.15 136.261 1441.15 177.524" fill="#011C27"/>
<path d="M707.058 252.584H796.34C801.345 252.584 805.256 248.678 805.256 243.679V225.827C805.256 220.828 801.345 216.922 796.34 216.922H742.762C732.753 216.922 724.889 209.067 724.889 199.07V163.408C724.889 153.41 732.753 145.555 742.762 145.555H778.467C783.471 145.555 787.382 141.649 787.382 136.65V118.798C787.382 113.8 783.429 109.893 778.467 109.893H742.762C732.753 109.893 724.889 102.038 724.889 92.041V56.3787C724.889 46.3815 732.753 38.5265 742.762 38.5265H787.424C792.051 38.5265 796.34 34.6201 796.34 29.6215V11.7693C796.34 6.77073 792.429 2.86426 787.424 2.86426H707.058C697.049 2.86426 689.184 10.7192 689.184 20.7164V83.1359C689.184 88.1345 693.095 92.041 698.1 92.041C703.105 92.041 707.016 95.9474 707.016 100.946V118.798C707.016 123.797 703.105 127.703 698.1 127.703C693.095 127.703 689.184 130.896 689.184 136.608V234.732C689.184 244.729 697.049 252.584 707.058 252.584Z" fill="#011C27"/>
<path d="M931.767 254.89C986.24 254.89 1027.8 218.589 1036.52 162.718H1012.8C1005.48 204.282 974.03 231.868 931.809 231.868C879.762 231.868 844.858 190.674 844.858 127.486C844.858 64.2981 879.762 23.0634 931.809 23.0634C971.275 23.0634 1000.59 46.1269 1011.07 85.5526H1034.83C1022.95 31.4501 983.157 0 931.85 0C869.36 0 821.877 48.5524 821.877 127.445C821.877 206.338 869.36 254.89 931.85 254.89" fill="#011C27"/>
<path d="M1151.66 252.722V63.8534C1151.66 42.868 1168.78 25.7096 1189.77 25.7096H1241.16V3H1039V25.7517H1090.39C1111.38 25.7517 1128.49 42.9101 1128.49 63.8954V252.722H1151.58H1151.66Z" fill="#011C27"/>
<path d="M1501.09 160.026H1484.49L1471.35 71.4828V3H1514.23V71.4828L1501.09 160.026ZM1471 230.93V194.959H1514.58V230.93C1514.58 243.036 1504.9 252.72 1492.79 252.72C1480.68 252.72 1471 243.036 1471 230.93Z" fill="#011C27"/>
</svg>
