<svg width="1517" height="575" viewBox="0 0 1517 575" fill="none" xmlns="http://www.w3.org/2000/svg">
<path d="M23.7318 252.72V60.3648C23.7318 54.0641 28.6323 48.8342 35.2624 48.8342C40.4923 48.8342 44.6928 52.664 46.0929 56.535L115.359 239.789H132.861L202.127 56.4938C203.527 52.664 207.727 48.793 212.957 48.793C219.587 48.793 224.488 54.0229 224.488 60.3236V252.72H247.22V3H199.985L135.99 172.294C134.59 176.494 130.06 180.324 124.089 180.324C118.118 180.324 113.588 176.494 112.188 172.294L48.2343 3H1V252.72H23.7318Z" fill="#011C27"/>
<path d="M464.835 252.584H571.864C576.863 252.584 580.769 248.678 580.769 243.679V225.827C580.769 220.828 576.863 216.922 571.864 216.922H545.107C540.109 216.922 536.202 213.016 536.202 208.017V47.4316C536.202 42.433 540.109 38.5265 545.107 38.5265H562.959C567.958 38.5265 571.864 34.6201 571.864 29.6215V11.7693C571.864 6.77073 567.958 2.86426 562.959 2.86426H473.783C468.784 2.86426 464.877 6.77073 464.877 11.7693V29.6215C464.877 34.6201 468.784 38.5265 473.783 38.5265H491.635C496.633 38.5265 500.54 42.433 500.54 47.4316V207.975C500.54 212.974 496.633 216.88 491.635 216.88H464.877C459.879 216.88 455.972 220.786 455.972 225.785V243.637C455.972 248.636 459.879 252.542 464.877 252.542" fill="#011C27"/>
<path d="M432.67 177.524C432.67 148.492 408.867 124.73 379.876 124.73H352.944C324.282 124.73 300.15 148.533 300.15 177.524C300.15 206.515 324.282 230.318 352.944 230.318H379.876C408.908 230.318 432.67 206.515 432.67 177.524ZM455.072 177.524C455.072 218.787 421.139 252.72 379.876 252.72H281.248V3H304.35V102.328H379.917C421.18 102.328 455.113 136.261 455.113 177.524" fill="#011C27"/>
<path d="M1419.71 177.524C1419.71 148.492 1395.91 124.73 1366.92 124.73H1339.98C1311.32 124.73 1287.19 148.533 1287.19 177.524C1287.19 206.515 1311.32 230.318 1339.98 230.318H1366.92C1395.95 230.318 1419.71 206.515 1419.71 177.524ZM1442.11 177.524C1442.11 218.787 1408.18 252.72 1366.92 252.72H1268.29V3H1291.39V102.328H1366.96C1408.22 102.328 1442.15 136.261 1442.15 177.524" fill="#011C27"/>
<path d="M708.058 252.584H797.34C802.345 252.584 806.256 248.678 806.256 243.679V225.827C806.256 220.828 802.345 216.922 797.34 216.922H743.762C733.753 216.922 725.889 209.067 725.889 199.07V163.408C725.889 153.41 733.753 145.555 743.762 145.555H779.467C784.471 145.555 788.382 141.649 788.382 136.65V118.798C788.382 113.8 784.429 109.893 779.467 109.893H743.762C733.753 109.893 725.889 102.038 725.889 92.041V56.3787C725.889 46.3815 733.753 38.5265 743.762 38.5265H788.424C793.051 38.5265 797.34 34.6201 797.34 29.6215V11.7693C797.34 6.77073 793.429 2.86426 788.424 2.86426H708.058C698.049 2.86426 690.184 10.7192 690.184 20.7164V83.1359C690.184 88.1345 694.095 92.041 699.1 92.041C704.105 92.041 708.016 95.9474 708.016 100.946V118.798C708.016 123.797 704.105 127.703 699.1 127.703C694.095 127.703 690.184 130.896 690.184 136.608V234.732C690.184 244.729 698.049 252.584 708.058 252.584Z" fill="#011C27"/>
<path d="M932.767 254.89C987.24 254.89 1028.8 218.589 1037.52 162.718H1013.8C1006.48 204.282 975.03 231.868 932.809 231.868C880.762 231.868 845.858 190.674 845.858 127.486C845.858 64.2981 880.762 23.0634 932.809 23.0634C972.275 23.0634 1001.59 46.1269 1012.07 85.5526H1035.83C1023.95 31.4501 984.157 0 932.85 0C870.36 0 822.877 48.5524 822.877 127.445C822.877 206.338 870.36 254.89 932.85 254.89" fill="#011C27"/>
<path d="M92.2684 571.722L137.393 404.217C138.781 399.675 142.987 395.848 148.58 395.848C154.173 395.848 158.379 399.675 159.767 404.217L204.891 571.722H238.115L297.202 322H274.829L231.47 506.284C230.419 510.49 226.213 514.695 220.283 514.695C214.69 514.695 210.485 510.868 209.097 506.284L161.196 330.032H136.005L88.105 506.284C86.7172 510.826 82.5117 514.695 76.9184 514.695C70.9887 514.695 66.7831 510.49 65.7318 506.284L22.3732 322H0L59.0872 571.722H92.3105H92.2684Z" fill="#011C27"/>
<path d="M333.159 571.72H422.441C427.446 571.72 431.357 567.814 431.357 562.815V544.963C431.357 539.964 427.446 536.058 422.441 536.058H368.863C358.854 536.058 350.99 528.203 350.99 518.206V482.543C350.99 472.546 358.854 464.691 368.863 464.691H404.568C409.572 464.691 413.484 460.785 413.484 455.786V437.934C413.484 432.935 409.572 429.029 404.568 429.029H368.863C358.854 429.029 350.99 421.174 350.99 411.177V375.514C350.99 365.517 358.854 357.662 368.863 357.662H413.526C418.152 357.662 422.441 353.756 422.441 348.757V330.905C422.441 325.906 418.53 322 413.526 322H333.159C323.15 322 315.285 329.855 315.285 339.852V402.272C315.285 407.27 319.196 411.177 324.201 411.177C329.206 411.177 333.117 415.083 333.117 420.082V437.934C333.117 442.933 329.206 446.839 324.201 446.839C319.196 446.839 315.285 450.031 315.285 455.744V553.868C315.285 563.865 323.15 571.72 333.159 571.72Z" fill="#011C27"/>
<path d="M570.642 571.72H659.925C664.929 571.72 668.84 567.814 668.84 562.815V544.963C668.84 539.964 664.929 536.058 659.925 536.058H606.347C596.338 536.058 588.474 528.203 588.474 518.206V482.543C588.474 472.546 596.338 464.691 606.347 464.691H642.052C647.056 464.691 650.967 460.785 650.967 455.786V437.934C650.967 432.935 647.056 429.029 642.052 429.029H606.347C596.338 429.029 588.474 421.174 588.474 411.177V375.514C588.474 365.517 596.338 357.662 606.347 357.662H651.009C655.635 357.662 659.925 353.756 659.925 348.757V330.905C659.925 325.906 656.014 322 651.009 322H570.642C560.633 322 552.769 329.855 552.769 339.852V402.272C552.769 407.27 556.68 411.177 561.685 411.177C566.689 411.177 570.6 415.083 570.6 420.082V437.934C570.6 442.933 566.689 446.839 561.685 446.839C556.68 446.839 552.769 450.031 552.769 455.744V553.868C552.769 563.865 560.633 571.72 570.642 571.72Z" fill="#011C27"/>
<path d="M885.213 322H858.634L807.579 395.806C803.752 401.063 797.108 405.605 788.36 405.605C779.613 405.605 772.968 401.063 769.141 395.806L718.087 322H691.508L775.449 442.992L686.251 571.68H712.83L769.141 490.177C772.968 485.299 779.613 480.379 788.36 480.379C797.108 480.379 803.752 485.257 807.579 490.177L863.891 571.68H890.47L801.313 442.992L885.255 322H885.213Z" fill="#011C27"/>
<path d="M914.482 571.72H1021.64C1026.64 571.72 1030.55 567.814 1030.55 562.815V544.963C1030.55 539.964 1026.64 536.058 1021.64 536.058H994.849C989.845 536.058 985.934 532.151 985.934 527.153V366.567C985.934 361.569 989.845 357.662 994.849 357.662H1012.72C1017.73 357.662 1021.64 353.756 1021.64 348.757V330.905C1021.64 325.906 1017.73 322 1012.72 322H923.44C918.436 322 914.524 325.906 914.524 330.905V348.757C914.524 353.756 918.436 357.662 923.44 357.662H941.313C946.318 357.662 950.229 361.569 950.229 366.567V527.111C950.229 532.109 946.318 536.016 941.313 536.016H914.524C909.52 536.016 905.609 539.922 905.609 544.921V562.773C905.609 567.772 909.52 571.678 914.524 571.678" fill="#011C27"/>
<path d="M1142.04 574.916C1210.47 574.916 1233.17 532.314 1233.17 501.614C1233.17 468.812 1215.72 434.579 1152.51 434.579H1142.38C1098.73 434.579 1079.88 419.902 1079.88 390.589C1079.88 361.277 1102.22 342.773 1138.89 342.773C1179.39 342.773 1201.04 362.665 1201.04 397.234H1223.75C1223.75 350.469 1192.68 320.063 1138.93 320.063C1085.18 320.063 1057.22 354.296 1057.22 390.589C1057.22 426.883 1076.77 457.288 1142.42 457.288H1152.56C1192.72 457.288 1210.51 471.587 1210.51 501.614C1210.51 531.642 1183.97 552.248 1142.08 552.248C1094.6 552.248 1070.84 529.539 1070.84 485.928H1048.13C1048.13 535.847 1075.38 574.958 1142.04 574.958" fill="#011C27"/>
<path d="M1346.39 571.722V382.853C1346.39 361.868 1363.5 344.71 1384.49 344.71H1435.88V322H1233.72V344.752H1285.11C1306.1 344.752 1323.21 361.91 1323.21 382.895V571.722H1346.3H1346.39Z" fill="#011C27"/>
<path d="M1152.66 252.722V63.8534C1152.66 42.868 1169.78 25.7096 1190.77 25.7096H1242.16V3H1040V25.7517H1091.39C1112.38 25.7517 1129.49 42.9101 1129.49 63.8954V252.722H1152.58H1152.66Z" fill="#011C27"/>
<path d="M1503.09 479.026H1486.49L1473.35 390.483V322H1516.23V390.483L1503.09 479.026ZM1473 549.93V513.959H1516.58V549.93C1516.58 562.036 1506.9 571.72 1494.79 571.72C1482.68 571.72 1473 562.036 1473 549.93Z" fill="#011C27"/>
<path d="M1502.09 160.026H1485.49L1472.35 71.4828V3H1515.23V71.4828L1502.09 160.026ZM1472 230.93V194.959H1515.58V230.93C1515.58 243.036 1505.9 252.72 1493.79 252.72C1481.68 252.72 1472 243.036 1472 230.93Z" fill="#011C27"/>
</svg>
