<svg width="764" height="62" viewBox="0 0 764 62" fill="none" xmlns="http://www.w3.org/2000/svg">
<path d="M416.953 61.213L427.929 20.4695C428.266 19.3648 429.289 18.4339 430.65 18.4339C432.01 18.4339 433.033 19.3648 433.371 20.4695L444.347 61.213H452.428L466.8 0.471191H461.358L450.812 45.2961C450.556 46.3191 449.533 47.342 448.091 47.342C446.73 47.342 445.707 46.4111 445.37 45.2961L433.719 2.42499H427.591L415.94 45.2961C415.602 46.4009 414.579 47.342 413.219 47.342C411.777 47.342 410.754 46.3191 410.498 45.2961L399.952 0.471191H394.51L408.882 61.213H416.963H416.953Z" fill="#011C27"/>
<path d="M475.546 61.2125H497.263C498.48 61.2125 499.432 60.2623 499.432 59.0465V54.7042C499.432 53.4883 498.48 52.5381 497.263 52.5381H484.231C481.796 52.5381 479.883 50.6275 479.883 48.1958V39.5214C479.883 37.0897 481.796 35.1791 484.231 35.1791H492.916C494.133 35.1791 495.084 34.2289 495.084 33.013V28.6707C495.084 27.4549 494.133 26.5047 492.916 26.5047H484.231C481.796 26.5047 479.883 24.594 479.883 22.1623V13.4879C479.883 11.0562 481.796 9.14561 484.231 9.14561H495.094C496.22 9.14561 497.263 8.19541 497.263 6.97956V2.63724C497.263 1.42139 496.312 0.471191 495.094 0.471191H475.546C473.112 0.471191 471.199 2.38181 471.199 4.81351V19.9963C471.199 21.2121 472.15 22.1623 473.367 22.1623C474.585 22.1623 475.536 23.1125 475.536 24.3284V28.6707C475.536 29.8866 474.585 30.8368 473.367 30.8368C472.15 30.8368 471.199 31.6133 471.199 33.0028V56.8702C471.199 59.3019 473.112 61.2125 475.546 61.2125Z" fill="#011C27"/>
<path d="M533.311 61.2125H555.028C556.246 61.2125 557.197 60.2623 557.197 59.0465V54.7042C557.197 53.4883 556.246 52.5381 555.028 52.5381H541.996C539.561 52.5381 537.649 50.6275 537.649 48.1958V39.5214C537.649 37.0897 539.561 35.1791 541.996 35.1791H550.681C551.898 35.1791 552.849 34.2289 552.849 33.013V28.6707C552.849 27.4549 551.898 26.5047 550.681 26.5047H541.996C539.561 26.5047 537.649 24.594 537.649 22.1623V13.4879C537.649 11.0562 539.561 9.14561 541.996 9.14561H552.86C553.985 9.14561 555.028 8.19541 555.028 6.97956V2.63724C555.028 1.42139 554.077 0.471191 552.86 0.471191H533.311C530.877 0.471191 528.964 2.38181 528.964 4.81351V19.9963C528.964 21.2121 529.915 22.1623 531.133 22.1623C532.35 22.1623 533.301 23.1125 533.301 24.3284V28.6707C533.301 29.8866 532.35 30.8368 531.133 30.8368C529.915 30.8368 528.964 31.6133 528.964 33.0028V56.8702C528.964 59.3019 530.877 61.2125 533.311 61.2125Z" fill="#011C27"/>
<path d="M609.827 0.471191H603.362L590.943 18.4237C590.013 19.7023 588.396 20.8071 586.269 20.8071C584.141 20.8071 582.525 19.7023 581.594 18.4237L569.175 0.471191H562.711L583.128 29.901L561.432 61.2027H567.897L581.594 41.3783C582.525 40.1917 584.141 38.9949 586.269 38.9949C588.396 38.9949 590.013 40.1815 590.943 41.3783L604.641 61.2027H611.106L589.419 29.901L609.837 0.471191H609.827Z" fill="#011C27"/>
<path d="M616.946 61.2125H643.011C644.228 61.2125 645.179 60.2623 645.179 59.0465V54.7042C645.179 53.4883 644.228 52.5381 643.011 52.5381H636.495C635.277 52.5381 634.326 51.5879 634.326 50.3721V11.3117C634.326 10.0958 635.277 9.14561 636.495 9.14561H640.842C642.06 9.14561 643.011 8.19541 643.011 6.97956V2.63724C643.011 1.42139 642.06 0.471191 640.842 0.471191H619.125C617.908 0.471191 616.957 1.42139 616.957 2.63724V6.97956C616.957 8.19541 617.908 9.14561 619.125 9.14561H623.473C624.69 9.14561 625.641 10.0958 625.641 11.3117V50.3619C625.641 51.5777 624.69 52.5279 623.473 52.5279H616.957C615.739 52.5279 614.788 53.4781 614.788 54.694V59.0363C614.788 60.2521 615.739 61.2023 616.957 61.2023" fill="#011C27"/>
<path d="M672.297 61.9898C688.941 61.9898 694.464 51.6275 694.464 44.16C694.464 36.1812 690.219 27.8545 674.845 27.8545H672.379C661.761 27.8545 657.178 24.2844 657.178 17.1546C657.178 10.0247 662.61 5.52384 671.53 5.52384C681.381 5.52384 686.649 10.3623 686.649 18.7708H692.173C692.173 7.39581 684.614 0 671.54 0C658.467 0 651.665 8.32668 651.665 17.1546C651.665 25.9825 656.421 33.3783 672.389 33.3783H674.855C684.624 33.3783 688.951 36.8563 688.951 44.16C688.951 51.4638 682.496 56.4762 672.308 56.4762C660.759 56.4762 654.979 50.9523 654.979 40.3445H649.455C649.455 52.4867 656.084 62 672.297 62" fill="#011C27"/>
<path d="M722.002 61.213V15.273C722.002 10.1686 726.165 5.99503 731.269 5.99503H743.77V0.471191H694.597V6.00526H707.097C712.202 6.00526 716.365 10.1788 716.365 15.2833V61.213H721.981H722.002Z" fill="#011C27"/>
<path d="M760.118 38.6659H756.08L752.883 17.1288V0.471191H763.315V17.1288L760.118 38.6659ZM752.799 55.9124V47.163H763.399V55.9124C763.399 58.8569 761.044 61.2125 758.099 61.2125C755.155 61.2125 752.799 58.8569 752.799 55.9124Z" fill="#011C27"/>
<path d="M5.52923 61.4711V14.683C5.52923 13.1505 6.72122 11.8783 8.33391 11.8783C9.60603 11.8783 10.6277 12.8099 10.9683 13.7515L27.8164 58.3258H32.0735L48.9216 13.7414C49.2622 12.8099 50.2839 11.8683 51.556 11.8683C53.1687 11.8683 54.3607 13.1404 54.3607 14.673V61.4711H59.8899V0.729736H48.4008L32.8348 41.9085C32.4942 42.9302 31.3924 43.8617 29.94 43.8617C28.4875 43.8617 27.3857 42.9302 27.0451 41.9085L11.4892 0.729736H0V61.4711H5.52923Z" fill="#011C27"/>
<path d="M112.822 61.4381H138.856C140.072 61.4381 141.022 60.4879 141.022 59.2721V54.9298C141.022 53.7139 140.072 52.7637 138.856 52.7637H132.348C131.132 52.7637 130.182 51.8135 130.182 50.5977V11.5372C130.182 10.3214 131.132 9.37119 132.348 9.37119H136.69C137.906 9.37119 138.856 8.42099 138.856 7.20514V2.86283C138.856 1.64698 137.906 0.696777 136.69 0.696777H114.999C113.783 0.696777 112.833 1.64698 112.833 2.86283V7.20514C112.833 8.42099 113.783 9.37119 114.999 9.37119H119.341C120.557 9.37119 121.507 10.3214 121.507 11.5372V50.5875C121.507 51.8033 120.557 52.7535 119.341 52.7535H112.833C111.617 52.7535 110.667 53.7037 110.667 54.9195V59.2619C110.667 60.4777 111.617 61.4279 112.833 61.4279" fill="#011C27"/>
<path d="M104.999 43.1806C104.999 36.1188 99.2089 30.3391 92.1572 30.3391H85.6062C78.6346 30.3391 72.7648 36.1288 72.7648 43.1806C72.7648 50.2323 78.6346 56.022 85.6062 56.022H92.1572C99.2189 56.022 104.999 50.2323 104.999 43.1806ZM110.448 43.1806C110.448 53.2173 102.194 61.4711 92.1572 61.4711H68.1671V0.729736H73.7865V24.8901H92.1672C102.204 24.8901 110.458 33.1438 110.458 43.1806" fill="#011C27"/>
<path d="M345.084 43.1806C345.084 36.1188 339.294 30.3391 332.243 30.3391H325.692C318.72 30.3391 312.85 36.1288 312.85 43.1806C312.85 50.2323 318.72 56.022 325.692 56.022H332.243C339.304 56.022 345.084 50.2323 345.084 43.1806ZM350.533 43.1806C350.533 53.2173 342.279 61.4711 332.243 61.4711H308.253V0.729736H313.872V24.8901H332.253C342.289 24.8901 350.543 33.1438 350.543 43.1806" fill="#011C27"/>
<path d="M171.983 61.4381H193.7C194.918 61.4381 195.869 60.4879 195.869 59.2721V54.9298C195.869 53.7139 194.918 52.7637 193.7 52.7637H180.668C178.233 52.7637 176.321 50.8531 176.321 48.4214V39.747C176.321 37.3153 178.233 35.4047 180.668 35.4047H189.353C190.57 35.4047 191.521 34.4545 191.521 33.2386V28.8963C191.521 27.6804 190.56 26.7302 189.353 26.7302H180.668C178.233 26.7302 176.321 24.8196 176.321 22.3879V13.7135C176.321 11.2818 178.233 9.37119 180.668 9.37119H191.532C192.657 9.37119 193.7 8.42099 193.7 7.20514V2.86283C193.7 1.64698 192.749 0.696777 191.532 0.696777H171.983C169.549 0.696777 167.636 2.6074 167.636 5.03909V20.2219C167.636 21.4377 168.587 22.3879 169.804 22.3879C171.022 22.3879 171.973 23.3381 171.973 24.554V28.8963C171.973 30.1121 171.022 31.0623 169.804 31.0623C168.587 31.0623 167.636 31.8389 167.636 33.2284V57.0958C167.636 59.5275 169.549 61.4381 171.983 61.4381Z" fill="#011C27"/>
<path d="M226.641 61.9989C239.891 61.9989 250.001 53.1691 252.121 39.5793H246.351C244.571 49.6891 236.921 56.399 226.651 56.399C213.991 56.399 205.502 46.3792 205.502 31.0094C205.502 15.6397 213.991 5.6099 226.651 5.6099C236.251 5.6099 243.381 11.2198 245.931 20.8096H251.711C248.821 7.64986 239.141 0 226.661 0C211.461 0 199.912 11.8098 199.912 30.9994C199.912 50.1891 211.461 61.9989 226.661 61.9989" fill="#011C27"/>
<path d="M280.129 61.4715V15.5316C280.129 10.4271 284.292 6.25358 289.397 6.25358H301.897V0.729736H252.724V6.26381H265.225C270.329 6.26381 274.492 10.4374 274.492 15.5418V61.4715H280.108H280.129Z" fill="#011C27"/>
<path d="M365.122 38.9244H361.084L357.887 17.3873V0.729736H368.319V17.3873L365.122 38.9244ZM357.803 56.1709V47.4215H368.403V56.1709C368.403 59.1155 366.047 61.4711 363.103 61.4711C360.158 61.4711 357.803 59.1155 357.803 56.1709Z" fill="#011C27"/>
</svg>
