<svg width="903" height="580" viewBox="0 0 903 580" fill="none" xmlns="http://www.w3.org/2000/svg">
<path opacity="0.9" d="M353.15 0H807.43C861.56 0 902.81 41.25 902.81 95.38V288.71C902.81 342.84 861.57 386.67 807.43 386.67H742.99C688.86 386.67 645.03 427.91 645.03 482.05C645.03 536.19 603.79 580 549.65 580H95.38C41.25 580 0 538.76 0 484.62V291.29C0 237.16 41.24 193.33 95.38 193.33H159.82C213.95 193.33 257.77 152.09 257.77 97.95C257.77 43.81 299.02 0 353.15 0Z" fill="#EBFFF9"/>
<path d="M482.76 300.301C492.23 294.611 492.23 285.391 482.76 279.701L429.15 247.501C419.68 241.811 412 246.161 412 257.201V322.801C412 333.841 419.68 338.191 429.15 332.501L482.76 300.301Z" fill="#011C27"/>
</svg>
